<?xml version="1.0" standalone="no"?>
<!DOCTYPE svg PUBLIC "-//W3C//DTD SVG 20010904//EN"
 "http://www.w3.org/TR/2001/REC-SVG-20010904/DTD/svg10.dtd">
<svg version="1.0" xmlns="http://www.w3.org/2000/svg"
 width="512.000000pt" height="512.000000pt" viewBox="0 0 512.000000 512.000000"
 preserveAspectRatio="xMidYMid meet">

<g transform="translate(0.000000,512.000000) scale(0.100000,-0.100000)"
fill="#000000" stroke="none">
<path d="M2487 4260 c-222 -39 -383 -262 -348 -481 38 -233 257 -396 482 -360
282 46 442 341 324 598 -79 174 -271 276 -458 243z"/>
<path d="M980 2754 c-173 -75 -161 -342 18 -394 26 -8 505 -10 1584 -8 l1546
3 44 30 c138 97 118 306 -34 370 -33 13 -210 15 -1580 15 -1356 -1 -1547 -3
-1578 -16z"/>
<path d="M2487 1700 c-222 -39 -383 -262 -348 -481 38 -233 257 -396 482 -360
282 46 442 341 324 598 -79 174 -271 276 -458 243z"/>
</g>
</svg>
