<?xml version="1.0" standalone="no"?>
<!DOCTYPE svg PUBLIC "-//W3C//DTD SVG 20010904//EN"
 "http://www.w3.org/TR/2001/REC-SVG-20010904/DTD/svg10.dtd">
<svg version="1.0" xmlns="http://www.w3.org/2000/svg"
 width="512.000000pt" height="512.000000pt" viewBox="0 0 512.000000 512.000000"
 preserveAspectRatio="xMidYMid meet">

<g transform="translate(0.000000,512.000000) scale(0.100000,-0.100000)"
fill="#000000" stroke="none">
<path d="M1120 4377 c-70 -20 -106 -46 -227 -170 -135 -136 -157 -176 -157
-287 -1 -142 -25 -112 633 -772 l586 -588 -586 -587 c-658 -661 -634 -631
-633 -773 0 -112 22 -151 162 -292 144 -146 190 -172 302 -172 143 -1 112 -25
773 633 l587 586 588 -586 c660 -658 629 -634 772 -633 112 0 158 26 302 172
140 141 162 180 162 292 1 142 25 112 -633 773 l-586 587 586 588 c658 660
634 630 633 772 0 112 -22 151 -162 292 -144 146 -190 172 -302 172 -143 1
-112 25 -772 -633 l-588 -586 -587 586 c-520 518 -594 588 -642 609 -67 27
-151 34 -211 17z"/>
</g>
</svg>
